# xmcd
#
# Track frame offsets:
#	150
#	20631
#	33569
#	48143
#	63288
#	79039
#	97258
#	113460
#	133265
#	146438
#	163180
#
# Disc length: 2453 seconds
# Revision: 0
# Processed by: cddbd v1.5.2PL0 Copyright (c) Steve Scherf et al.
# Submitted via: dBpowerAMP V12.0
#
DISCID=9209930b
DTITLE=The Smooth Jazz All Stars - Smooth Jazz Tribute To Jay-Z
DYEAR=2010
DGENRE=Jazz
TTITLE0=Empire State Of Mind
TTITLE1=Run This Town
TTITLE2=Young Forever
TTITLE3=D.O.A (Death Of Auto-Tune)
TTITLE4=Dirt Off Your Shoulder
TTITLE5=Big Pimpin'
TTITLE6=Hard Knock Life (Ghetto Anthem)
TTITLE7=Can I Get A...
TTITLE8=Show Me What You Got
TTITLE9=Izzo (H.O.V.A.)
TTITLE10=Empire State Of Mind (Ballad)
EXTD=
EXTT0=
EXTT1=
EXTT2=
EXTT3=
EXTT4=
EXTT5=
EXTT6=
EXTT7=
EXTT8=
EXTT9=
EXTT10=
PLAYORDER=
